{"scene":0,"asset":{"generator":"ImageToStl.com","version":"2.0"},"scenes":[{"name":"Scene","nodes":[0]}],"nodes":[{"name":"Node0","children":[1]},{"name":"Node1","mesh":0}],"materials":[{"name":"color_15277357","pbrMetallicRoughness":{"baseColorFactor":[0.9137255,0.11372549,0.1764706,1],"metallicFactor":0,"roughnessFactor":1},"doubleSided":true},{"name":"color_40919","pbrMetallicRoughness":{"baseColorFactor":[0,0.62352943,0.84313726,1],"metallicFactor":0,"roughnessFactor":1},"doubleSided":true},{"name":"color_16089887","pbrMetallicRoughness":{"baseColorFactor":[0.9607843,0.5137255,0.12156863,1],"metallicFactor":0,"roughnessFactor":1},"doubleSided":true},{"name":"color_4634441","pbrMetallicRoughness":{"baseColorFactor":[0.27450982,0.7176471,0.28627452,1],"metallicFactor":0,"roughnessFactor":1},"doubleSided":true}],"meshes":[{"name":"Mesh0","primitives":[{"indices":1,"material":0,"attributes":{"POSITION":0}},{"indices":2,"material":1,"attributes":{"POSITION":0}},{"indices":3,"material":2,"attributes":{"POSITION":0}},{"indices":4,"material":3,"attributes":{"POSITION":0}}]}],"accessors":[{"bufferView":0,"componentType":5126,"count":5176,"type":"VEC3","min":[-30.373,14.5,0],"max":[28.51,31,67]},{"bufferView":1,"componentType":5123,"count":13365,"type":"SCALAR"},{"bufferView":2,"componentType":5123,"count":15195,"type":"SCALAR"},{"bufferView":3,"componentType":5123,"count":2091,"type":"SCALAR"},{"bufferView":4,"componentType":5123,"count":453,"type":"SCALAR"}],"bufferViews":[{"target":34962,"buffer":0,"byteLength":62112,"byteOffset":0},{"target":34963,"buffer":0,"byteLength":26730,"byteOffset":62112},{"target":34963,"buffer":0,"byteLength":30390,"byteOffset":88844},{"target":34963,"buffer":0,"byteLength":4182,"byteOffset":119236},{"target":34963,"buffer":0,"byteLength":906,"byteOffset":123420}],"buffers":[{"byteLength":124328,"uri":"data:application/octet-stream;base64,"}]}